<?xml version="1.0" standalone="no"?>
<!DOCTYPE svg PUBLIC "-//W3C//DTD SVG 20010904//EN"
 "http://www.w3.org/TR/2001/REC-SVG-20010904/DTD/svg10.dtd">
<svg version="1.0" xmlns="http://www.w3.org/2000/svg"
 width="249.000000pt" height="256.000000pt" viewBox="0 0 249.000000 256.000000"
 preserveAspectRatio="xMidYMid meet">
<metadata>
Created by potrace 1.16, written by Peter Selinger 2001-2019
</metadata>
<g transform="translate(0.000000,256.000000) scale(0.100000,-0.100000)"
fill="#000000" stroke="none">
<path d="M775 2544 c-106 -25 -88 6 -216 -369 -54 -156 -89 -257 -134 -380
-20 -55 -40 -113 -44 -130 -5 -16 -16 -50 -25 -75 -10 -25 -28 -76 -41 -115
-14 -38 -43 -122 -65 -185 -23 -63 -43 -122 -45 -130 -2 -8 -20 -60 -40 -115
-19 -55 -54 -154 -76 -220 -23 -66 -47 -132 -55 -147 -8 -16 -12 -28 -10 -28
3 0 1 -12 -6 -27 -21 -53 -20 -101 1 -122 37 -37 282 -42 349 -7 28 15 47 53
81 166 6 19 25 76 42 125 16 50 32 98 34 108 13 62 -11 57 300 57 l284 0 -33
-78 c-40 -93 -115 -269 -125 -297 -5 -11 -18 -39 -30 -63 -41 -85 3 -34 51 58
28 52 73 140 102 195 29 55 74 141 101 190 111 208 131 246 193 364 35 69 84
161 109 205 52 95 52 102 -2 251 -20 55 -38 107 -40 115 -2 8 -22 67 -45 130
-82 230 -102 286 -124 356 -37 111 -54 141 -89 155 -32 11 -362 23 -402 13z
m230 -639 c42 -126 78 -237 80 -246 2 -8 10 -32 19 -52 8 -20 13 -37 11 -37
-2 0 4 -20 15 -45 11 -25 17 -45 14 -45 -2 0 2 -13 10 -29 8 -15 17 -40 20
-54 2 -14 9 -34 15 -45 5 -10 12 -31 15 -45 l5 -27 -285 0 c-156 0 -284 1
-284 3 0 1 12 36 26 77 14 41 27 82 29 91 2 8 10 32 19 52 8 20 13 37 11 37
-2 0 4 20 15 45 11 25 17 45 15 45 -2 0 4 20 15 45 11 25 17 45 15 45 -2 0 4
20 15 45 11 25 17 45 15 45 -2 0 3 17 11 37 9 20 17 44 19 52 4 17 28 90 51
151 7 19 15 48 19 64 3 15 8 27 10 25 2 -2 38 -107 80 -234z"/>
<path d="M2050 2474 c0 -9 -5 -12 -12 -8 -7 4 -8 3 -4 -4 4 -6 -4 -28 -16 -49
-13 -21 -32 -55 -42 -75 -11 -21 -23 -38 -28 -38 -5 0 -6 -5 -2 -11 3 -6 3
-14 -2 -18 -9 -6 -23 -31 -79 -138 -18 -35 -36 -59 -40 -55 -5 4 -5 1 -1 -6 5
-8 -2 -28 -16 -50 -13 -20 -35 -59 -48 -87 -13 -27 -26 -52 -29 -55 -9 -8 -51
-99 -51 -110 0 -6 123 -10 330 -10 341 0 380 4 380 41 0 10 4 20 9 23 11 7 11
215 -1 222 -4 3 -8 12 -8 20 0 39 -20 42 -236 44 -114 0 -210 3 -213 6 -3 2 1
10 7 16 7 7 12 22 12 35 0 13 5 23 10 23 5 0 9 3 9 8 -3 16 14 72 22 72 5 0 6
6 3 14 -3 8 -1 17 5 21 6 3 11 15 11 26 0 10 4 19 10 19 5 0 7 6 4 14 -3 8 -1
17 5 21 6 3 11 15 11 26 0 10 4 19 9 19 5 0 7 9 4 20 -3 11 0 20 6 20 6 0 11
5 11 10 0 6 -7 10 -15 10 -8 0 -15 -7 -15 -16z"/>
<path d="M1643 1725 c-7 -8 -13 -19 -13 -25 0 -5 -4 -10 -10 -10 -5 0 -7 -7
-4 -15 4 -8 2 -15 -4 -15 -5 0 -13 -12 -16 -26 -4 -15 -18 -41 -30 -58 -13
-17 -27 -42 -31 -56 -4 -14 -10 -27 -14 -30 -3 -3 -17 -27 -30 -55 -14 -27
-27 -52 -31 -55 -4 -3 -18 -29 -32 -57 -14 -29 -28 -50 -31 -46 -4 3 -7 -3 -7
-15 0 -12 -4 -22 -10 -22 -5 0 -6 -7 -3 -17 4 -11 3 -14 -5 -9 -8 5 -12 0 -12
-12 0 -11 -6 -25 -13 -31 -8 -6 -24 -35 -37 -66 -13 -30 -27 -55 -32 -55 -4 0
-8 -7 -8 -15 0 -8 -5 -15 -11 -15 -5 0 -7 -4 -4 -10 3 -5 4 -14 1 -19 -3 -5
-6 -205 -7 -445 -1 -404 0 -439 17 -460 9 -13 23 -22 31 -19 7 3 19 1 26 -5
16 -14 273 -16 282 -2 3 5 13 10 21 10 8 0 22 8 32 17 16 17 17 50 17 408 l0
390 332 0 c182 0 329 3 326 8 -2 4 0 7 6 7 15 0 23 53 23 149 0 112 -10 174
-28 167 -8 -3 -14 -1 -14 4 0 6 -118 10 -315 10 l-315 0 0 255 c0 236 -1 255
-17 255 -10 -1 -24 -7 -30 -15z"/>
</g>
</svg>
